# Blender v3.0.1 OBJ File: 'gatling.blend'
# www.blender.org
mtllib gatling_barrel.mtl
o MinigunBarrel_Cube.007
v -0.089162 -0.176777 -2.000000
v -0.176777 -0.264392 -2.000000
v -0.089162 -0.176777 2.000000
v -0.176777 -0.264392 2.000000
v -0.176777 -0.089162 -2.000000
v -0.264392 -0.176777 -2.000000
v -0.176777 -0.089162 2.000000
v -0.264392 -0.176777 2.000000
v 0.061953 -0.188047 -2.000000
v 0.061953 -0.311953 -2.000000
v 0.061953 -0.188047 2.000000
v 0.061953 -0.311953 2.000000
v -0.061953 -0.188047 -2.000000
v -0.061953 -0.311953 -2.000000
v -0.061953 -0.188047 2.000000
v -0.061953 -0.311953 2.000000
v 0.061953 0.311953 -2.000000
v 0.061953 0.188047 -2.000000
v 0.061953 0.311953 2.000000
v 0.061953 0.188047 2.000000
v -0.061953 0.311953 -2.000000
v -0.061953 0.188047 -2.000000
v -0.061953 0.311953 2.000000
v -0.061953 0.188047 2.000000
v -0.188047 -0.061953 -2.000000
v -0.311953 -0.061953 -2.000000
v -0.188047 -0.061953 2.000000
v -0.311953 -0.061953 2.000000
v -0.188047 0.061953 -2.000000
v -0.311953 0.061953 -2.000000
v -0.188047 0.061953 2.000000
v -0.311953 0.061953 2.000000
v 0.311953 -0.061953 -2.000000
v 0.188047 -0.061953 -2.000000
v 0.311953 -0.061953 2.000000
v 0.188047 -0.061953 2.000000
v 0.311953 0.061953 -2.000000
v 0.188047 0.061953 -2.000000
v 0.311953 0.061953 2.000000
v 0.188047 0.061953 2.000000
v 0.264392 0.176777 -2.000000
v 0.176777 0.089162 -2.000000
v 0.264392 0.176777 2.000000
v 0.176777 0.089162 2.000000
v 0.176777 0.264392 -2.000000
v 0.089162 0.176777 -2.000000
v 0.176777 0.264392 2.000000
v 0.089162 0.176777 2.000000
v 0.176777 -0.264392 -2.000000
v 0.089162 -0.176777 -2.000000
v 0.176777 -0.264392 2.000000
v 0.089162 -0.176777 2.000000
v 0.264392 -0.176777 -2.000000
v 0.176777 -0.089162 -2.000000
v 0.264392 -0.176777 2.000000
v 0.176777 -0.089162 2.000000
v -0.176777 0.089162 -2.000000
v -0.264392 0.176777 -2.000000
v -0.176777 0.089162 2.000000
v -0.264392 0.176777 2.000000
v -0.089162 0.176777 -2.000000
v -0.176777 0.264392 -2.000000
v -0.089162 0.176777 2.000000
v -0.176777 0.264392 2.000000
v -0.252775 -0.252775 0.107900
v -0.252775 0.252775 0.107900
v -0.252775 -0.252775 -0.109402
v -0.252775 0.252775 -0.109402
v 0.252775 -0.252775 0.107900
v 0.252775 0.252775 0.107900
v 0.252775 -0.252775 -0.109402
v 0.252775 0.252775 -0.109402
v 0.000000 -0.350758 -0.109402
v 0.000000 0.350758 -0.109402
v 0.000000 -0.350758 0.107900
v 0.000000 0.350758 0.107900
v -0.350758 0.000000 0.107900
v -0.350758 0.000000 -0.109402
v 0.350758 0.000000 -0.109402
v 0.350758 0.000000 0.107900
v -0.000000 -0.000000 0.107900
v -0.000000 -0.000000 -0.109402
v -0.252775 -0.252775 1.464809
v -0.252775 0.252775 1.464809
v -0.252775 -0.252775 1.408855
v -0.252775 0.252775 1.408855
v 0.252775 -0.252775 1.464809
v 0.252775 0.252775 1.464809
v 0.252775 -0.252775 1.408855
v 0.252775 0.252775 1.408855
v 0.000000 -0.350758 1.408855
v 0.000000 0.350758 1.408855
v 0.000000 -0.350758 1.464809
v 0.000000 0.350758 1.464809
v -0.350758 0.000000 1.464809
v -0.350758 0.000000 1.408855
v 0.350758 0.000000 1.408855
v 0.350758 0.000000 1.464809
v -0.176943 -0.176943 1.464809
v -0.176943 0.176943 1.464809
v 0.176943 -0.176943 1.464809
v 0.176943 0.176943 1.464809
v -0.000000 -0.245531 1.464809
v 0.000000 0.245531 1.464809
v -0.245531 -0.000000 1.464809
v 0.245531 0.000000 1.464809
v -0.176943 -0.176943 1.408855
v -0.176943 0.176943 1.408855
v 0.176943 -0.176943 1.408855
v 0.176943 0.176943 1.408855
v -0.000000 -0.245531 1.408855
v 0.000000 0.245531 1.408855
v -0.245531 -0.000000 1.408855
v 0.245531 0.000000 1.408855
v -0.252775 -0.252775 1.824922
v -0.252775 0.252775 1.824922
v -0.252775 -0.252775 1.768968
v -0.252775 0.252775 1.768968
v 0.252775 -0.252775 1.824922
v 0.252775 0.252775 1.824922
v 0.252775 -0.252775 1.768968
v 0.252775 0.252775 1.768968
v 0.000000 -0.350758 1.768968
v 0.000000 0.350758 1.768968
v 0.000000 -0.350758 1.824922
v 0.000000 0.350758 1.824922
v -0.350758 0.000000 1.824922
v -0.350758 0.000000 1.768968
v 0.350758 0.000000 1.768968
v 0.350758 0.000000 1.824922
v -0.176943 -0.176943 1.824922
v -0.176943 0.176943 1.824922
v 0.176943 -0.176943 1.824922
v 0.176943 0.176943 1.824922
v -0.000000 -0.245531 1.824922
v 0.000000 0.245531 1.824922
v -0.245531 -0.000000 1.824922
v 0.245531 0.000000 1.824922
v -0.176943 -0.176943 1.768968
v -0.176943 0.176943 1.768968
v 0.176943 -0.176943 1.768968
v 0.176943 0.176943 1.768968
v -0.000000 -0.245531 1.768968
v 0.000000 0.245531 1.768968
v -0.245531 -0.000000 1.768968
v 0.245531 0.000000 1.768968
v -0.252775 -0.252775 1.074043
v -0.252775 0.252775 1.074043
v -0.252775 -0.252775 1.018089
v -0.252775 0.252775 1.018089
v 0.252775 -0.252775 1.074043
v 0.252775 0.252775 1.074043
v 0.252775 -0.252775 1.018089
v 0.252775 0.252775 1.018089
v 0.000000 -0.350758 1.018089
v 0.000000 0.350758 1.018089
v 0.000000 -0.350758 1.074043
v 0.000000 0.350758 1.074043
v -0.350758 0.000000 1.074043
v -0.350758 0.000000 1.018089
v 0.350758 0.000000 1.018089
v 0.350758 0.000000 1.074043
v -0.176943 -0.176943 1.074043
v -0.176943 0.176943 1.074043
v 0.176943 -0.176943 1.074043
v 0.176943 0.176943 1.074043
v -0.000000 -0.245531 1.074043
v 0.000000 0.245531 1.074043
v -0.245531 -0.000000 1.074043
v 0.245531 0.000000 1.074043
v -0.176943 -0.176943 1.018089
v -0.176943 0.176943 1.018089
v 0.176943 -0.176943 1.018089
v 0.176943 0.176943 1.018089
v -0.000000 -0.245531 1.018089
v 0.000000 0.245531 1.018089
v -0.245531 -0.000000 1.018089
v 0.245531 0.000000 1.018089
vt 0.875000 0.500000
vt 0.625000 0.750000
vt 0.625000 0.500000
vt 0.375000 1.000000
vt 0.375000 0.750000
vt 0.625000 0.000000
vt 0.375000 0.250000
vt 0.375000 0.000000
vt 0.375000 0.500000
vt 0.125000 0.750000
vt 0.125000 0.500000
vt 0.625000 0.250000
vt 0.875000 0.750000
vt 0.625000 1.000000
vt 0.875000 0.500000
vt 0.625000 0.750000
vt 0.625000 0.500000
vt 0.375000 1.000000
vt 0.375000 0.750000
vt 0.625000 0.000000
vt 0.375000 0.250000
vt 0.375000 0.000000
vt 0.375000 0.500000
vt 0.125000 0.750000
vt 0.125000 0.500000
vt 0.625000 0.250000
vt 0.875000 0.750000
vt 0.625000 1.000000
vt 0.875000 0.500000
vt 0.625000 0.750000
vt 0.625000 0.500000
vt 0.375000 1.000000
vt 0.375000 0.750000
vt 0.625000 0.000000
vt 0.375000 0.250000
vt 0.375000 0.000000
vt 0.375000 0.500000
vt 0.125000 0.750000
vt 0.125000 0.500000
vt 0.625000 0.250000
vt 0.875000 0.750000
vt 0.625000 1.000000
vt 0.875000 0.500000
vt 0.625000 0.750000
vt 0.625000 0.500000
vt 0.375000 1.000000
vt 0.375000 0.750000
vt 0.625000 0.000000
vt 0.375000 0.250000
vt 0.375000 0.000000
vt 0.375000 0.500000
vt 0.125000 0.750000
vt 0.125000 0.500000
vt 0.625000 0.250000
vt 0.875000 0.750000
vt 0.625000 1.000000
vt 0.875000 0.500000
vt 0.625000 0.750000
vt 0.625000 0.500000
vt 0.375000 1.000000
vt 0.375000 0.750000
vt 0.625000 0.000000
vt 0.375000 0.250000
vt 0.375000 0.000000
vt 0.375000 0.500000
vt 0.125000 0.750000
vt 0.125000 0.500000
vt 0.625000 0.250000
vt 0.875000 0.750000
vt 0.625000 1.000000
vt 0.875000 0.500000
vt 0.625000 0.750000
vt 0.625000 0.500000
vt 0.375000 1.000000
vt 0.375000 0.750000
vt 0.625000 0.000000
vt 0.375000 0.250000
vt 0.375000 0.000000
vt 0.375000 0.500000
vt 0.125000 0.750000
vt 0.125000 0.500000
vt 0.625000 0.250000
vt 0.875000 0.750000
vt 0.625000 1.000000
vt 0.875000 0.500000
vt 0.625000 0.750000
vt 0.625000 0.500000
vt 0.375000 1.000000
vt 0.375000 0.750000
vt 0.625000 0.000000
vt 0.375000 0.250000
vt 0.375000 0.000000
vt 0.375000 0.500000
vt 0.125000 0.750000
vt 0.125000 0.500000
vt 0.625000 0.250000
vt 0.875000 0.750000
vt 0.625000 1.000000
vt 0.875000 0.500000
vt 0.625000 0.750000
vt 0.625000 0.500000
vt 0.375000 1.000000
vt 0.375000 0.750000
vt 0.625000 0.000000
vt 0.375000 0.250000
vt 0.375000 0.000000
vt 0.375000 0.500000
vt 0.125000 0.750000
vt 0.125000 0.500000
vt 0.625000 0.250000
vt 0.625000 0.000000
vt 0.500000 0.250000
vt 0.500000 0.000000
vt 0.500000 0.375000
vt 0.625000 0.500000
vt 0.500000 0.500000
vt 0.500000 0.750000
vt 0.500000 0.875000
vt 0.625000 1.000000
vt 0.500000 1.000000
vt 0.375000 0.500000
vt 0.250000 0.750000
vt 0.250000 0.500000
vt 0.875000 0.500000
vt 0.750000 0.750000
vt 0.750000 0.500000
vt 0.625000 0.750000
vt 0.125000 0.750000
vt 0.125000 0.500000
vt 0.625000 0.250000
vt 0.375000 0.250000
vt 0.375000 0.375000
vt 0.375000 0.750000
vt 0.375000 0.875000
vt 0.375000 1.000000
vt 0.375000 0.000000
vt 0.625000 0.000000
vt 0.500000 0.250000
vt 0.500000 0.000000
vt 0.750000 0.500000
vt 0.625000 0.500000
vt 0.750000 0.500000
vt 0.625000 0.500000
vt 0.500000 0.750000
vt 0.500000 0.500000
vt 0.375000 0.750000
vt 0.375000 0.750000
vt 0.375000 0.500000
vt 0.250000 0.750000
vt 0.250000 0.500000
vt 0.875000 0.500000
vt 0.750000 0.750000
vt 0.625000 0.750000
vt 0.125000 0.750000
vt 0.125000 0.500000
vt 0.375000 0.000000
vt 0.500000 0.000000
vt 0.875000 0.500000
vt 0.875000 0.750000
vt 0.750000 0.750000
vt 0.625000 0.750000
vt 0.125000 0.500000
vt 0.250000 0.500000
vt 0.375000 0.250000
vt 0.375000 0.000000
vt 0.375000 0.250000
vt 0.500000 0.250000
vt 0.625000 0.000000
vt 0.125000 0.750000
vt 0.500000 0.750000
vt 0.250000 0.750000
vt 0.375000 0.500000
vt 0.500000 0.500000
vt 0.625000 0.250000
vt 0.625000 0.000000
vt 0.500000 0.250000
vt 0.500000 0.000000
vt 0.750000 0.500000
vt 0.625000 0.500000
vt 0.750000 0.500000
vt 0.625000 0.500000
vt 0.500000 0.750000
vt 0.500000 0.500000
vt 0.375000 0.750000
vt 0.375000 0.750000
vt 0.375000 0.500000
vt 0.250000 0.750000
vt 0.250000 0.500000
vt 0.875000 0.500000
vt 0.750000 0.750000
vt 0.625000 0.750000
vt 0.125000 0.750000
vt 0.125000 0.500000
vt 0.375000 0.000000
vt 0.500000 0.000000
vt 0.875000 0.500000
vt 0.875000 0.750000
vt 0.750000 0.750000
vt 0.625000 0.750000
vt 0.125000 0.500000
vt 0.250000 0.500000
vt 0.375000 0.250000
vt 0.375000 0.000000
vt 0.375000 0.250000
vt 0.500000 0.250000
vt 0.625000 0.000000
vt 0.125000 0.750000
vt 0.500000 0.750000
vt 0.250000 0.750000
vt 0.375000 0.500000
vt 0.500000 0.500000
vt 0.625000 0.250000
vt 0.625000 0.000000
vt 0.500000 0.250000
vt 0.500000 0.000000
vt 0.750000 0.500000
vt 0.625000 0.500000
vt 0.750000 0.500000
vt 0.625000 0.500000
vt 0.500000 0.750000
vt 0.500000 0.500000
vt 0.375000 0.750000
vt 0.375000 0.750000
vt 0.375000 0.500000
vt 0.250000 0.750000
vt 0.250000 0.500000
vt 0.875000 0.500000
vt 0.750000 0.750000
vt 0.625000 0.750000
vt 0.125000 0.750000
vt 0.125000 0.500000
vt 0.375000 0.000000
vt 0.500000 0.000000
vt 0.875000 0.500000
vt 0.875000 0.750000
vt 0.750000 0.750000
vt 0.625000 0.750000
vt 0.125000 0.500000
vt 0.250000 0.500000
vt 0.375000 0.250000
vt 0.375000 0.000000
vt 0.375000 0.250000
vt 0.500000 0.250000
vt 0.625000 0.000000
vt 0.125000 0.750000
vt 0.500000 0.750000
vt 0.250000 0.750000
vt 0.375000 0.500000
vt 0.500000 0.500000
vt 0.625000 0.250000
vt 0.875000 0.750000
vt 0.625000 1.000000
vt 0.625000 0.375000
vt 0.625000 0.875000
vt 0.875000 0.750000
vt 0.625000 0.250000
vt 0.875000 0.750000
vt 0.625000 0.250000
vt 0.875000 0.750000
vt 0.625000 0.250000
vt 0.875000 0.750000
vn 0.7071 0.7071 0.0000
vn 0.0000 0.0000 1.0000
vn -0.7071 0.7071 0.0000
vn -0.7071 -0.7071 0.0000
vn 0.7071 -0.7071 0.0000
vn 0.0000 0.0000 -1.0000
vn -0.0000 1.0000 0.0000
vn -1.0000 0.0000 0.0000
vn 0.0000 -1.0000 0.0000
vn 1.0000 0.0000 0.0000
vn -0.9324 0.3614 0.0000
vn 0.9324 0.3614 0.0000
vn 0.3614 -0.9324 0.0000
vn -0.3614 0.9324 0.0000
vn 0.3614 0.9324 0.0000
vn -0.3614 -0.9324 0.0000
vn 0.9324 -0.3614 0.0000
vn -0.9324 -0.3614 0.0000
usemtl Material
s off
f 5/1/1 3/2/1 1/3/1
f 3/2/2 8/4/2 4/5/2
f 7/6/3 6/7/3 8/8/3
f 2/9/4 8/10/4 6/11/4
f 1/3/5 4/5/5 2/9/5
f 5/12/6 2/9/6 6/7/6
f 5/1/1 7/13/1 3/2/1
f 3/2/2 7/14/2 8/4/2
f 7/6/3 5/12/3 6/7/3
f 2/9/4 4/5/4 8/10/4
f 1/3/5 3/2/5 4/5/5
f 5/12/6 1/3/6 2/9/6
f 13/15/7 11/16/7 9/17/7
f 11/16/2 16/18/2 12/19/2
f 15/20/8 14/21/8 16/22/8
f 10/23/9 16/24/9 14/25/9
f 9/17/10 12/19/10 10/23/10
f 13/26/6 10/23/6 14/21/6
f 13/15/7 15/27/7 11/16/7
f 11/16/2 15/28/2 16/18/2
f 15/20/8 13/26/8 14/21/8
f 10/23/9 12/19/9 16/24/9
f 9/17/10 11/16/10 12/19/10
f 13/26/6 9/17/6 10/23/6
usemtl Material.001
f 21/29/7 19/30/7 17/31/7
f 19/30/2 24/32/2 20/33/2
f 23/34/8 22/35/8 24/36/8
f 18/37/9 24/38/9 22/39/9
f 17/31/10 20/33/10 18/37/10
f 21/40/6 18/37/6 22/35/6
f 21/29/7 23/41/7 19/30/7
f 19/30/2 23/42/2 24/32/2
f 23/34/8 21/40/8 22/35/8
f 18/37/9 20/33/9 24/38/9
f 17/31/10 19/30/10 20/33/10
f 21/40/6 17/31/6 18/37/6
usemtl Material.003
f 29/43/10 27/44/10 25/45/10
f 27/44/2 32/46/2 28/47/2
f 31/48/7 30/49/7 32/50/7
f 26/51/8 32/52/8 30/53/8
f 25/45/9 28/47/9 26/51/9
f 29/54/6 26/51/6 30/49/6
f 29/43/10 31/55/10 27/44/10
f 27/44/2 31/56/2 32/46/2
f 31/48/7 29/54/7 30/49/7
f 26/51/8 28/47/8 32/52/8
f 25/45/9 27/44/9 28/47/9
f 29/54/6 25/45/6 26/51/6
usemtl Material.002
f 37/57/10 35/58/10 33/59/10
f 35/58/2 40/60/2 36/61/2
f 39/62/7 38/63/7 40/64/7
f 34/65/8 40/66/8 38/67/8
f 33/59/9 36/61/9 34/65/9
f 37/68/6 34/65/6 38/63/6
f 37/57/10 39/69/10 35/58/10
f 35/58/2 39/70/2 40/60/2
f 39/62/7 37/68/7 38/63/7
f 34/65/8 36/61/8 40/66/8
f 33/59/9 35/58/9 36/61/9
f 37/68/6 33/59/6 34/65/6
usemtl Material.006
f 45/71/1 43/72/1 41/73/1
f 43/72/2 48/74/2 44/75/2
f 47/76/3 46/77/3 48/78/3
f 42/79/4 48/80/4 46/81/4
f 41/73/5 44/75/5 42/79/5
f 45/82/6 42/79/6 46/77/6
f 45/71/1 47/83/1 43/72/1
f 43/72/2 47/84/2 48/74/2
f 47/76/3 45/82/3 46/77/3
f 42/79/4 44/75/4 48/80/4
f 41/73/5 43/72/5 44/75/5
f 45/82/6 41/73/6 42/79/6
usemtl Material.005
f 53/85/5 51/86/5 49/87/5
f 51/86/2 56/88/2 52/89/2
f 55/90/1 54/91/1 56/92/1
f 50/93/3 56/94/3 54/95/3
f 49/87/4 52/89/4 50/93/4
f 53/96/6 50/93/6 54/91/6
f 53/85/5 55/97/5 51/86/5
f 51/86/2 55/98/2 56/88/2
f 55/90/1 53/96/1 54/91/1
f 50/93/3 52/89/3 56/94/3
f 49/87/4 51/86/4 52/89/4
f 53/96/6 49/87/6 50/93/6
usemtl Material.004
f 61/99/5 59/100/5 57/101/5
f 59/100/2 64/102/2 60/103/2
f 63/104/1 62/105/1 64/106/1
f 58/107/3 64/108/3 62/109/3
f 57/101/4 60/103/4 58/107/4
f 61/110/6 58/107/6 62/105/6
f 66/111/11 78/112/11 77/113/11
f 82/114/6 72/115/6 79/116/6
f 72/115/12 80/117/12 79/116/12
f 81/118/2 66/119/2 77/120/2
f 71/121/13 75/122/13 73/123/13
f 68/124/14 76/125/14 74/126/14
f 74/126/15 70/127/15 72/115/15
f 73/123/16 65/128/16 67/129/16
f 70/127/2 81/118/2 80/117/2
f 68/130/6 82/114/6 78/112/6
f 67/131/6 82/114/6 73/132/6
f 69/133/2 81/118/2 75/134/2
f 81/118/2 65/135/2 75/134/2
f 79/116/17 69/133/17 71/121/17
f 82/114/6 71/121/6 73/132/6
f 77/113/18 67/131/18 65/136/18
f 84/137/11 96/138/11 95/139/11
f 92/140/6 110/141/6 112/142/6
f 90/143/12 98/144/12 97/145/12
f 98/144/2 101/146/2 87/147/2
f 89/148/13 93/149/13 91/150/13
f 86/151/14 94/152/14 92/140/14
f 92/140/15 88/153/15 90/143/15
f 91/150/16 83/154/16 85/155/16
f 95/139/2 99/156/2 105/157/2
f 97/145/6 110/141/6 90/143/6
f 92/140/6 108/158/6 86/151/6
f 94/152/2 100/159/2 104/160/2
f 94/152/2 102/161/2 88/153/2
f 97/145/17 87/147/17 89/148/17
f 91/150/6 107/162/6 111/163/6
f 95/139/18 85/164/18 83/165/18
f 107/166/12 105/157/12 99/156/12
f 113/167/17 100/168/17 105/157/17
f 100/168/13 112/142/13 104/160/13
f 104/160/16 110/141/16 102/161/16
f 93/149/2 99/169/2 83/154/2
f 98/144/2 102/161/2 106/170/2
f 95/139/2 100/168/2 84/137/2
f 93/149/2 101/146/2 103/171/2
f 103/171/15 107/166/15 99/156/15
f 101/146/14 111/163/14 103/171/14
f 106/170/11 109/172/11 101/146/11
f 102/161/18 114/173/18 106/170/18
f 96/138/6 107/166/6 85/164/6
f 91/150/6 109/172/6 89/148/6
f 96/138/6 108/174/6 113/167/6
f 97/145/6 109/172/6 114/173/6
f 116/175/11 128/176/11 127/177/11
f 124/178/6 142/179/6 144/180/6
f 122/181/12 130/182/12 129/183/12
f 130/182/2 133/184/2 119/185/2
f 121/186/13 125/187/13 123/188/13
f 118/189/14 126/190/14 124/178/14
f 124/178/15 120/191/15 122/181/15
f 123/188/16 115/192/16 117/193/16
f 127/177/2 131/194/2 137/195/2
f 129/183/6 142/179/6 122/181/6
f 124/178/6 140/196/6 118/189/6
f 126/190/2 132/197/2 136/198/2
f 126/190/2 134/199/2 120/191/2
f 129/183/17 119/185/17 121/186/17
f 123/188/6 139/200/6 143/201/6
f 127/177/18 117/202/18 115/203/18
f 139/204/12 137/195/12 131/194/12
f 145/205/17 132/206/17 137/195/17
f 132/206/13 144/180/13 136/198/13
f 136/198/16 142/179/16 134/199/16
f 125/187/2 131/207/2 115/192/2
f 130/182/2 134/199/2 138/208/2
f 127/177/2 132/206/2 116/175/2
f 125/187/2 133/184/2 135/209/2
f 135/209/15 139/204/15 131/194/15
f 133/184/14 143/201/14 135/209/14
f 138/208/11 141/210/11 133/184/11
f 134/199/18 146/211/18 138/208/18
f 128/176/6 139/204/6 117/202/6
f 123/188/6 141/210/6 121/186/6
f 128/176/6 140/212/6 145/205/6
f 129/183/6 141/210/6 146/211/6
f 148/213/11 160/214/11 159/215/11
f 156/216/6 174/217/6 176/218/6
f 154/219/12 162/220/12 161/221/12
f 162/220/2 165/222/2 151/223/2
f 153/224/13 157/225/13 155/226/13
f 150/227/14 158/228/14 156/216/14
f 156/216/15 152/229/15 154/219/15
f 155/226/16 147/230/16 149/231/16
f 159/215/2 163/232/2 169/233/2
f 161/221/6 174/217/6 154/219/6
f 156/216/6 172/234/6 150/227/6
f 158/228/2 164/235/2 168/236/2
f 158/228/2 166/237/2 152/229/2
f 161/221/17 151/223/17 153/224/17
f 155/226/6 171/238/6 175/239/6
f 159/215/18 149/240/18 147/241/18
f 171/242/12 169/233/12 163/232/12
f 177/243/17 164/244/17 169/233/17
f 164/244/13 176/218/13 168/236/13
f 168/236/16 174/217/16 166/237/16
f 157/225/2 163/245/2 147/230/2
f 162/220/2 166/237/2 170/246/2
f 159/215/2 164/244/2 148/213/2
f 157/225/2 165/222/2 167/247/2
f 167/247/15 171/242/15 163/232/15
f 165/222/14 175/239/14 167/247/14
f 170/246/11 173/248/11 165/222/11
f 166/237/18 178/249/18 170/246/18
f 160/214/6 171/242/6 149/240/6
f 155/226/6 173/248/6 153/224/6
f 160/214/6 172/250/6 177/243/6
f 161/221/6 173/248/6 178/249/6
f 61/99/5 63/251/5 59/100/5
f 59/100/2 63/252/2 64/102/2
f 63/104/1 61/110/1 62/105/1
f 58/107/3 60/103/3 64/108/3
f 57/101/4 59/100/4 60/103/4
f 61/110/6 57/101/6 58/107/6
f 66/111/11 68/130/11 78/112/11
f 82/114/6 74/253/6 72/115/6
f 72/115/12 70/127/12 80/117/12
f 81/118/2 76/254/2 66/119/2
f 71/121/13 69/133/13 75/122/13
f 68/124/14 66/255/14 76/125/14
f 74/126/15 76/125/15 70/127/15
f 73/123/16 75/122/16 65/128/16
f 70/127/2 76/254/2 81/118/2
f 68/130/6 74/253/6 82/114/6
f 67/131/6 78/112/6 82/114/6
f 69/133/2 80/117/2 81/118/2
f 81/118/2 77/120/2 65/135/2
f 79/116/17 80/117/17 69/133/17
f 82/114/6 79/116/6 71/121/6
f 77/113/18 78/112/18 67/131/18
f 84/137/11 86/256/11 96/138/11
f 92/140/6 90/143/6 110/141/6
f 90/143/12 88/153/12 98/144/12
f 98/144/2 106/170/2 101/146/2
f 89/148/13 87/147/13 93/149/13
f 86/151/14 84/257/14 94/152/14
f 92/140/15 94/152/15 88/153/15
f 91/150/16 93/149/16 83/154/16
f 95/139/2 83/165/2 99/156/2
f 97/145/6 114/173/6 110/141/6
f 92/140/6 112/142/6 108/158/6
f 94/152/2 84/257/2 100/159/2
f 94/152/2 104/160/2 102/161/2
f 97/145/17 98/144/17 87/147/17
f 91/150/6 85/155/6 107/162/6
f 95/139/18 96/138/18 85/164/18
f 107/166/12 113/167/12 105/157/12
f 113/167/17 108/174/17 100/168/17
f 100/168/13 108/158/13 112/142/13
f 104/160/16 112/142/16 110/141/16
f 93/149/2 103/171/2 99/169/2
f 98/144/2 88/153/2 102/161/2
f 95/139/2 105/157/2 100/168/2
f 93/149/2 87/147/2 101/146/2
f 103/171/15 111/163/15 107/166/15
f 101/146/14 109/172/14 111/163/14
f 106/170/11 114/173/11 109/172/11
f 102/161/18 110/141/18 114/173/18
f 96/138/6 113/167/6 107/166/6
f 91/150/6 111/163/6 109/172/6
f 96/138/6 86/256/6 108/174/6
f 97/145/6 89/148/6 109/172/6
f 116/175/11 118/258/11 128/176/11
f 124/178/6 122/181/6 142/179/6
f 122/181/12 120/191/12 130/182/12
f 130/182/2 138/208/2 133/184/2
f 121/186/13 119/185/13 125/187/13
f 118/189/14 116/259/14 126/190/14
f 124/178/15 126/190/15 120/191/15
f 123/188/16 125/187/16 115/192/16
f 127/177/2 115/203/2 131/194/2
f 129/183/6 146/211/6 142/179/6
f 124/178/6 144/180/6 140/196/6
f 126/190/2 116/259/2 132/197/2
f 126/190/2 136/198/2 134/199/2
f 129/183/17 130/182/17 119/185/17
f 123/188/6 117/193/6 139/200/6
f 127/177/18 128/176/18 117/202/18
f 139/204/12 145/205/12 137/195/12
f 145/205/17 140/212/17 132/206/17
f 132/206/13 140/196/13 144/180/13
f 136/198/16 144/180/16 142/179/16
f 125/187/2 135/209/2 131/207/2
f 130/182/2 120/191/2 134/199/2
f 127/177/2 137/195/2 132/206/2
f 125/187/2 119/185/2 133/184/2
f 135/209/15 143/201/15 139/204/15
f 133/184/14 141/210/14 143/201/14
f 138/208/11 146/211/11 141/210/11
f 134/199/18 142/179/18 146/211/18
f 128/176/6 145/205/6 139/204/6
f 123/188/6 143/201/6 141/210/6
f 128/176/6 118/258/6 140/212/6
f 129/183/6 121/186/6 141/210/6
f 148/213/11 150/260/11 160/214/11
f 156/216/6 154/219/6 174/217/6
f 154/219/12 152/229/12 162/220/12
f 162/220/2 170/246/2 165/222/2
f 153/224/13 151/223/13 157/225/13
f 150/227/14 148/261/14 158/228/14
f 156/216/15 158/228/15 152/229/15
f 155/226/16 157/225/16 147/230/16
f 159/215/2 147/241/2 163/232/2
f 161/221/6 178/249/6 174/217/6
f 156/216/6 176/218/6 172/234/6
f 158/228/2 148/261/2 164/235/2
f 158/228/2 168/236/2 166/237/2
f 161/221/17 162/220/17 151/223/17
f 155/226/6 149/231/6 171/238/6
f 159/215/18 160/214/18 149/240/18
f 171/242/12 177/243/12 169/233/12
f 177/243/17 172/250/17 164/244/17
f 164/244/13 172/234/13 176/218/13
f 168/236/16 176/218/16 174/217/16
f 157/225/2 167/247/2 163/245/2
f 162/220/2 152/229/2 166/237/2
f 159/215/2 169/233/2 164/244/2
f 157/225/2 151/223/2 165/222/2
f 167/247/15 175/239/15 171/242/15
f 165/222/14 173/248/14 175/239/14
f 170/246/11 178/249/11 173/248/11
f 166/237/18 174/217/18 178/249/18
f 160/214/6 177/243/6 171/242/6
f 155/226/6 175/239/6 173/248/6
f 160/214/6 150/260/6 172/250/6
f 161/221/6 153/224/6 173/248/6
