# Blender v3.0.1 OBJ File: 'gatling.blend'
# www.blender.org
mtllib gatling_base.mtl
o MinigunBase_Cube.012
v -0.253943 -0.253943 -1.734891
v -0.253943 0.253943 -1.734891
v -0.343098 -0.343098 -3.247730
v -0.343098 0.343098 -3.247730
v 0.253943 -0.253943 -1.734891
v 0.253943 0.253943 -1.734891
v 0.343098 -0.343098 -3.247730
v 0.343098 0.343098 -3.247730
v 0.000000 -0.476093 -3.247730
v 0.000000 0.476093 -3.247730
v 0.000000 -0.352378 -1.734891
v 0.000000 0.352378 -1.734891
v -0.352378 0.000000 -1.734891
v -0.476093 0.000000 -3.247730
v 0.476093 0.000000 -3.247730
v 0.352378 0.000000 -1.734891
v 0.000000 0.000000 -3.247730
v 0.434255 -0.455497 -1.960300
v 0.434255 -0.070708 -1.960300
v 0.434255 -0.455497 -3.022320
v 0.434255 -0.070708 -3.022320
v 0.819044 -0.455497 -1.960300
v 0.819044 -0.070708 -1.960300
v 0.819044 -0.455497 -3.022320
v 0.819044 -0.070708 -3.022320
v 0.626649 -0.530075 -3.022320
v 0.626649 0.003870 -3.022320
v 0.626649 -0.530075 -1.960300
v 0.626649 0.003870 -1.960300
v 0.359677 -0.263103 -1.960300
v 0.359677 -0.263103 -3.022320
v 0.893622 -0.263103 -3.022320
v 0.893622 -0.263103 -1.960300
v 0.626649 -0.263103 -1.960300
v 0.626649 -0.263103 -3.022320
v -0.434796 0.675464 -1.668698
v -0.415056 0.750342 -1.665979
v -0.434796 0.675464 -1.879337
v -0.415056 0.750342 -1.864423
v 0.434796 0.675464 -1.668698
v 0.404191 0.750342 -1.665979
v 0.434796 0.675464 -1.879337
v 0.404191 0.750342 -1.864423
v 0.320492 0.675464 -1.879337
v 0.320492 0.795513 -1.879337
v 0.320492 0.675464 -1.668698
v 0.320492 0.795513 -1.668698
v -0.322008 0.675464 -1.879337
v -0.322008 0.795513 -1.668698
v -0.322008 0.795513 -1.879337
v -0.322008 0.675464 -1.668698
v 0.434796 0.175464 -1.668698
v 0.434796 0.175464 -1.879337
v 0.320492 0.175464 -1.879337
v 0.320492 0.175464 -1.668698
v -0.434796 0.175464 -1.668698
v -0.434796 0.175464 -1.879337
v -0.322008 0.175464 -1.879337
v -0.322008 0.175464 -1.668698
v 0.278131 0.071523 -1.654563
v 0.278131 0.270049 -1.654563
v 0.278131 0.071523 -2.202495
v 0.278131 0.270049 -2.202495
v 0.476657 0.071523 -1.654563
v 0.476657 0.270049 -1.654563
v 0.476657 0.071523 -2.202495
v 0.476657 0.270049 -2.202495
v 0.377394 0.033046 -2.202495
v 0.377394 0.308526 -2.202495
v 0.377394 0.033046 -1.654563
v 0.377394 0.308526 -1.654563
v 0.239654 0.170786 -1.654563
v 0.239654 0.170786 -2.202495
v 0.515134 0.170786 -2.202495
v 0.515134 0.170786 -1.654563
v 0.377394 0.170786 -1.654563
v 0.377394 0.170786 -2.202495
v -0.478866 0.071523 -1.654563
v -0.478866 0.270049 -1.654563
v -0.478866 0.071523 -2.202495
v -0.478866 0.270049 -2.202495
v -0.280340 0.071523 -1.654563
v -0.280340 0.270049 -1.654563
v -0.280340 0.071523 -2.202495
v -0.280340 0.270049 -2.202495
v -0.379603 0.033046 -2.202495
v -0.379603 0.308526 -2.202495
v -0.379603 0.033046 -1.654563
v -0.379603 0.308526 -1.654563
v -0.517343 0.170786 -1.654563
v -0.517343 0.170786 -2.202495
v -0.241863 0.170786 -2.202495
v -0.241863 0.170786 -1.654563
v -0.379603 0.170786 -1.654563
v -0.379603 0.170786 -2.202495
v -0.476093 0.000000 -1.734891
v -0.343098 0.343098 -1.734891
v 0.476093 0.000000 -1.734891
v 0.343098 -0.343098 -1.734891
v 0.000000 -0.476093 -1.734891
v 0.000000 0.476093 -1.734891
v -0.343098 -0.343098 -1.734891
v 0.343098 0.343098 -1.734891
v 0.000000 -0.295499 -1.407095
v 0.000000 0.352378 -1.407095
v 0.352378 0.000000 -1.407095
v -0.295499 0.000000 -1.407095
v -0.212952 0.212952 -1.407095
v 0.212952 -0.212952 -1.407095
v -0.212952 -0.212952 -1.407095
v 0.212952 0.212952 -1.407095
v -0.352378 0.000000 -1.407095
v -0.253943 0.253943 -1.407095
v 0.295499 0.000000 -1.407095
v 0.253943 -0.253943 -1.407095
v 0.000000 -0.352378 -1.407095
v 0.000000 0.295499 -1.407095
v -0.253943 -0.253943 -1.407095
v 0.253943 0.253943 -1.407095
v 0.000000 0.000000 -2.576300
v 0.000000 -0.295499 -2.576300
v 0.000000 0.295499 -2.576300
v 0.295499 0.000000 -2.576300
v -0.295499 0.000000 -2.576300
v -0.212952 0.212952 -2.576300
v 0.212952 -0.212952 -2.576300
v -0.212952 -0.212952 -2.576300
v 0.212952 0.212952 -2.576300
vt 0.337256 0.281316
vt 0.287623 0.380582
vt 0.287623 0.281316
vt 0.287623 0.430214
vt 0.337256 0.479847
vt 0.287623 0.479847
vt 0.287623 0.579113
vt 0.321002 0.595368
vt 0.324359 0.628746
vt 0.321002 0.595368
vt 0.237990 0.479847
vt 0.188357 0.579113
vt 0.188357 0.479847
vt 0.436522 0.479847
vt 0.386889 0.579113
vt 0.386889 0.479847
vt 0.337256 0.579113
vt 0.138724 0.579113
vt 0.138724 0.479847
vt 0.287623 0.592011
vt 0.287623 0.592011
vt 0.337256 0.380582
vt 0.237990 0.380582
vt 0.237990 0.430214
vt 0.321002 0.662125
vt 0.287623 0.665482
vt 0.321002 0.662125
vt 0.254244 0.595368
vt 0.250888 0.628746
vt 0.250888 0.628746
vt 0.237990 0.579113
vt 0.237990 0.281316
vt 0.337256 0.281316
vt 0.287623 0.380582
vt 0.287623 0.281316
vt 0.287623 0.430214
vt 0.337256 0.479847
vt 0.287623 0.479847
vt 0.287623 0.579113
vt 0.287623 0.628746
vt 0.337256 0.678379
vt 0.287623 0.678379
vt 0.237990 0.479847
vt 0.188357 0.579113
vt 0.188357 0.479847
vt 0.436522 0.479847
vt 0.386889 0.579113
vt 0.386889 0.479847
vt 0.337256 0.579113
vt 0.138724 0.479847
vt 0.138724 0.579113
vt 0.337256 0.380582
vt 0.237990 0.380582
vt 0.237990 0.430214
vt 0.237990 0.579113
vt 0.237990 0.628746
vt 0.237990 0.678379
vt 0.237990 0.281316
vt 0.466119 0.636517
vt 0.427060 0.676895
vt 0.426400 0.637177
vt 0.391903 0.637750
vt 0.387342 0.677555
vt 0.386682 0.637837
vt 0.346964 0.638497
vt 0.312397 0.639071
vt 0.307905 0.678874
vt 0.307246 0.639156
vt 0.341743 0.638583
vt 0.346964 0.638497
vt 0.388002 0.717273
vt 0.348198 0.712781
vt 0.387916 0.712122
vt 0.347710 0.683436
vt 0.347624 0.678215
vt 0.386595 0.632616
vt 0.346390 0.603930
vt 0.386108 0.603270
vt 0.421909 0.676981
vt 0.421249 0.637263
vt 0.426400 0.637177
vt 0.387429 0.682776
vt 0.342403 0.678301
vt 0.237990 0.479847
vt 0.224942 0.579113
vt 0.224942 0.479847
vt 0.346877 0.633276
vt 0.346877 0.633276
vt 0.386682 0.637837
vt 0.391903 0.637750
vt 0.151599 0.479847
vt 0.138724 0.579113
vt 0.138724 0.479847
vt 0.466119 0.636517
vt 0.386108 0.603270
vt 0.312397 0.639071
vt 0.311811 0.663468
vt 0.343170 0.647789
vt 0.343170 0.663468
vt 0.358850 0.663468
vt 0.374529 0.647789
vt 0.374529 0.663468
vt 0.405889 0.663468
vt 0.421568 0.663468
vt 0.437248 0.647789
vt 0.437248 0.663468
vt 0.374529 0.679148
vt 0.405889 0.694827
vt 0.374529 0.694827
vt 0.374529 0.616430
vt 0.405889 0.632109
vt 0.374529 0.632109
vt 0.405889 0.647789
vt 0.374529 0.710507
vt 0.405889 0.710507
vt 0.237990 0.380582
vt 0.287623 0.430214
vt 0.237990 0.430214
vt 0.405889 0.679148
vt 0.421568 0.679148
vt 0.437248 0.679148
vt 0.358850 0.679148
vt 0.287623 0.281316
vt 0.237990 0.281316
vt 0.311811 0.647789
vt 0.343170 0.663468
vt 0.311811 0.663468
vt 0.358850 0.663468
vt 0.374529 0.647789
vt 0.374529 0.663468
vt 0.405889 0.663468
vt 0.421568 0.663468
vt 0.437248 0.647789
vt 0.437248 0.663468
vt 0.374529 0.679148
vt 0.405889 0.694827
vt 0.374529 0.694827
vt 0.374529 0.616430
vt 0.405889 0.632109
vt 0.374529 0.632109
vt 0.405889 0.647789
vt 0.374529 0.710507
vt 0.405889 0.710507
vt 0.343170 0.647789
vt 0.343170 0.679148
vt 0.358850 0.679148
vt 0.405889 0.679148
vt 0.421568 0.679148
vt 0.437248 0.679148
vt 0.287623 0.479847
vt 0.237990 0.579113
vt 0.237990 0.479847
vt 0.287623 0.430214
vt 0.237990 0.430214
vt 0.311811 0.679148
vt 0.287623 0.678379
vt 0.287623 0.665482
vt 0.237990 0.628746
vt 0.337256 0.628746
vt 0.337256 0.678379
vt 0.254244 0.662125
vt 0.324359 0.628746
vt 0.237990 0.678379
vt 0.314410 0.655533
vt 0.318429 0.628746
vt 0.318429 0.628746
vt 0.314410 0.601959
vt 0.314410 0.601959
vt 0.287623 0.597940
vt 0.287623 0.597940
vt 0.287623 0.659552
vt 0.314410 0.655533
vt 0.254244 0.595368
vt 0.254244 0.662125
vt 0.260836 0.601959
vt 0.260836 0.655533
vt 0.256817 0.628746
vt 0.287623 0.628746
vt 0.287623 0.659552
vt 0.260836 0.601959
vt 0.256817 0.628746
vt 0.260836 0.655533
vt 0.337256 0.430214
vt 0.436522 0.579113
vt 0.337256 0.430214
vt 0.337256 0.628746
vt 0.436522 0.579113
vt 0.466778 0.676235
vt 0.392563 0.677468
vt 0.313057 0.678789
vt 0.341743 0.638583
vt 0.348283 0.717933
vt 0.421249 0.637263
vt 0.237990 0.579113
vt 0.386595 0.632616
vt 0.151599 0.579113
vt 0.346390 0.603930
vt 0.307246 0.639156
vt 0.311811 0.647789
vt 0.358850 0.647789
vt 0.421568 0.647789
vt 0.405889 0.616430
vt 0.287623 0.380582
vt 0.358850 0.647789
vt 0.421568 0.647789
vt 0.405889 0.616430
vt 0.287623 0.579113
vn -0.9324 0.3614 0.0000
vn 0.0000 -0.0000 -1.0000
vn 0.9324 0.3614 0.0000
vn 0.3614 0.9324 0.0000
vn 0.3614 -0.9324 0.0000
vn -0.3614 0.9324 0.0000
vn -0.3614 -0.9324 0.0000
vn 0.9324 -0.3614 0.0000
vn -0.9324 -0.3614 0.0000
vn 0.0000 -0.0000 1.0000
vn -0.9670 0.2549 0.0000
vn 0.0000 0.1953 -0.9807
vn 0.9257 0.3783 0.0000
vn 0.0000 -0.0363 0.9993
vn -0.4367 0.8996 0.0000
vn 0.4749 0.8800 0.0000
vn 0.0000 -1.0000 0.0000
vn 0.0000 1.0000 0.0000
vn -1.0000 0.0000 0.0000
vn 1.0000 0.0000 0.0000
vn 0.1754 0.0000 -0.9845
vn 0.0292 0.0000 0.9996
vn -0.0325 0.0000 0.9995
vn -0.1583 0.0000 -0.9874
usemtl Material.007
s off
f 97/1/1 14/2/1 96/3/1
f 17/4/2 8/5/2 15/6/2
f 8/5/3 98/7/3 15/6/3
f 6/8/4 105/9/4 119/10/4
f 7/11/5 100/12/5 9/13/5
f 4/14/6 101/15/6 10/16/6
f 10/16/4 103/17/4 8/5/4
f 9/13/7 102/18/7 3/19/7
f 6/8/3 106/20/3 16/21/3
f 4/22/2 17/4/2 14/2/2
f 3/23/2 17/4/2 9/24/2
f 2/25/1 112/26/1 113/27/1
f 5/28/5 116/29/5 11/30/5
f 15/6/8 99/31/8 7/11/8
f 17/4/2 7/11/2 9/24/2
f 96/3/9 3/23/9 102/32/9
f 19/33/1 31/34/1 30/35/1
f 35/36/2 25/37/2 32/38/2
f 25/37/3 33/39/3 32/38/3
f 34/40/10 19/41/10 30/42/10
f 24/43/5 28/44/5 26/45/5
f 21/46/6 29/47/6 27/48/6
f 25/37/4 29/47/4 23/49/4
f 20/50/7 28/44/7 18/51/7
f 23/49/10 34/40/10 33/39/10
f 21/52/2 35/36/2 31/34/2
f 20/53/2 35/36/2 26/54/2
f 22/55/10 34/40/10 28/56/10
f 34/40/10 18/57/10 28/56/10
f 24/43/8 33/39/8 22/55/8
f 35/36/2 24/43/2 26/54/2
f 18/58/9 31/34/9 20/53/9
f 36/59/11 39/60/11 38/61/11
f 44/62/12 43/63/12 42/64/12
f 43/63/13 40/65/13 42/64/13
f 51/66/14 37/67/14 36/68/14
f 46/69/10 52/70/10 40/65/10
f 39/71/15 49/72/15 50/73/15
f 43/63/16 47/74/16 41/75/16
f 44/76/17 51/77/17 48/78/17
f 41/75/14 46/69/14 40/65/14
f 50/79/2 44/62/2 48/80/2
f 39/60/12 48/80/12 38/61/12
f 48/80/2 57/81/2 38/61/2
f 50/73/18 47/74/18 45/82/18
f 47/83/10 51/66/10 46/69/10
f 53/84/17 55/85/17 54/86/17
f 44/76/19 55/87/19 46/88/19
f 40/65/20 53/89/20 42/64/20
f 42/64/2 54/90/2 44/62/2
f 58/91/17 56/92/17 57/93/17
f 38/61/19 56/94/19 36/59/19
f 51/77/20 58/95/20 48/78/20
f 36/68/10 59/96/10 51/66/10
f 72/97/1 63/98/1 73/99/1
f 77/100/2 67/101/2 74/102/2
f 67/101/3 75/103/3 74/102/3
f 76/104/10 61/105/10 72/106/10
f 66/107/5 70/108/5 68/109/5
f 63/110/6 71/111/6 69/112/6
f 67/101/4 71/111/4 65/113/4
f 62/114/7 70/108/7 60/115/7
f 65/113/10 76/104/10 75/103/10
f 63/98/2 77/100/2 73/99/2
f 62/116/2 77/117/2 68/118/2
f 64/119/10 76/104/10 70/120/10
f 76/104/10 60/121/10 70/120/10
f 66/107/8 75/103/8 64/119/8
f 77/100/2 66/107/2 68/122/2
f 72/123/9 62/116/9 60/124/9
f 79/125/1 91/126/1 90/127/1
f 95/128/2 85/129/2 92/130/2
f 85/129/3 93/131/3 92/130/3
f 94/132/10 79/133/10 90/134/10
f 84/135/5 88/136/5 86/137/5
f 81/138/6 89/139/6 87/140/6
f 85/129/4 89/139/4 83/141/4
f 80/142/7 88/136/7 78/143/7
f 83/141/10 94/132/10 93/131/10
f 81/144/2 95/128/2 91/126/2
f 80/145/2 95/128/2 86/146/2
f 82/147/10 94/132/10 88/148/10
f 94/132/10 78/149/10 88/148/10
f 92/150/8 82/151/8 84/152/8
f 95/153/2 84/152/2 86/154/2
f 90/127/9 80/145/9 78/155/9
f 2/25/10 96/156/10 13/157/10
f 5/28/10 98/7/10 16/21/10
f 5/28/10 100/158/10 99/31/10
f 2/25/10 101/159/10 97/160/10
f 1/161/10 100/158/10 11/30/10
f 6/8/10 101/159/10 12/162/10
f 1/161/10 96/156/10 102/163/10
f 6/8/10 98/7/10 103/17/10
f 108/164/5 122/165/5 117/166/5
f 117/166/7 128/167/7 111/168/7
f 111/168/9 123/169/9 114/170/9
f 107/171/8 125/172/8 108/164/8
f 2/25/6 105/9/6 12/162/6
f 5/28/8 106/20/8 115/173/8
f 1/161/9 112/26/9 13/157/9
f 1/161/7 116/29/7 118/174/7
f 108/164/10 112/26/10 107/171/10
f 109/175/10 106/20/10 114/170/10
f 109/175/10 116/29/10 115/173/10
f 108/164/10 105/9/10 113/27/10
f 110/176/10 116/29/10 104/177/10
f 111/168/10 105/9/10 117/166/10
f 110/176/10 112/26/10 118/174/10
f 111/168/10 106/20/10 119/10/10
f 120/178/10 125/172/10 124/179/10
f 128/167/10 120/178/10 123/169/10
f 126/180/10 120/178/10 121/181/10
f 120/178/10 127/182/10 121/181/10
f 114/170/1 126/180/1 109/175/1
f 110/176/3 124/179/3 107/171/3
f 104/177/4 127/182/4 110/176/4
f 109/175/6 121/181/6 104/177/6
f 97/1/1 4/22/1 14/2/1
f 17/4/2 10/183/2 8/5/2
f 8/5/3 103/17/3 98/7/3
f 6/8/4 12/162/4 105/9/4
f 7/11/5 99/31/5 100/12/5
f 4/14/6 97/184/6 101/15/6
f 10/16/4 101/15/4 103/17/4
f 9/13/7 100/12/7 102/18/7
f 6/8/3 119/10/3 106/20/3
f 4/22/2 10/183/2 17/4/2
f 3/23/2 14/2/2 17/4/2
f 2/25/1 13/157/1 112/26/1
f 5/28/5 115/173/5 116/29/5
f 15/6/8 98/7/8 99/31/8
f 17/4/2 15/6/2 7/11/2
f 96/3/9 14/2/9 3/23/9
f 19/33/1 21/52/1 31/34/1
f 35/36/2 27/185/2 25/37/2
f 25/37/3 23/49/3 33/39/3
f 34/40/10 29/186/10 19/41/10
f 24/43/5 22/55/5 28/44/5
f 21/46/6 19/187/6 29/47/6
f 25/37/4 27/48/4 29/47/4
f 20/50/7 26/45/7 28/44/7
f 23/49/10 29/186/10 34/40/10
f 21/52/2 27/185/2 35/36/2
f 20/53/2 31/34/2 35/36/2
f 22/55/10 33/39/10 34/40/10
f 34/40/10 30/42/10 18/57/10
f 24/43/8 32/38/8 33/39/8
f 35/36/2 32/38/2 24/43/2
f 18/58/9 30/35/9 31/34/9
f 36/59/11 37/188/11 39/60/11
f 44/62/21 45/189/21 43/63/21
f 43/63/13 41/75/13 40/65/13
f 51/66/22 49/190/22 37/67/22
f 46/69/10 55/191/10 52/70/10
f 39/71/15 37/192/15 49/72/15
f 43/63/16 45/82/16 47/74/16
f 44/76/17 46/88/17 51/77/17
f 41/75/23 47/83/23 46/69/23
f 50/79/2 45/189/2 44/62/2
f 39/60/24 50/79/24 48/80/24
f 48/80/2 58/193/2 57/81/2
f 50/73/18 49/72/18 47/74/18
f 47/83/10 49/190/10 51/66/10
f 53/84/17 52/194/17 55/85/17
f 44/76/19 54/195/19 55/87/19
f 40/65/20 52/70/20 53/89/20
f 42/64/2 53/89/2 54/90/2
f 58/91/17 59/196/17 56/92/17
f 38/61/19 57/81/19 56/94/19
f 51/77/20 59/197/20 58/95/20
f 36/68/10 56/198/10 59/96/10
f 72/97/1 61/199/1 63/98/1
f 77/100/2 69/200/2 67/101/2
f 67/101/3 65/113/3 75/103/3
f 76/104/10 71/201/10 61/105/10
f 66/107/5 64/119/5 70/108/5
f 63/110/6 61/202/6 71/111/6
f 67/101/4 69/112/4 71/111/4
f 62/114/7 68/109/7 70/108/7
f 65/113/10 71/201/10 76/104/10
f 63/98/2 69/200/2 77/100/2
f 62/116/2 73/203/2 77/117/2
f 64/119/10 75/103/10 76/104/10
f 76/104/10 72/106/10 60/121/10
f 66/107/8 74/102/8 75/103/8
f 77/100/2 74/102/2 66/107/2
f 72/123/9 73/203/9 62/116/9
f 79/125/1 81/144/1 91/126/1
f 95/128/2 87/204/2 85/129/2
f 85/129/3 83/141/3 93/131/3
f 94/132/10 89/205/10 79/133/10
f 84/135/5 82/147/5 88/136/5
f 81/138/6 79/206/6 89/139/6
f 85/129/4 87/140/4 89/139/4
f 80/142/7 86/137/7 88/136/7
f 83/141/10 89/205/10 94/132/10
f 81/144/2 87/204/2 95/128/2
f 80/145/2 91/126/2 95/128/2
f 82/147/10 93/131/10 94/132/10
f 94/132/10 90/134/10 78/149/10
f 92/150/8 93/207/8 82/151/8
f 95/153/2 92/150/2 84/152/2
f 90/127/9 91/126/9 80/145/9
f 2/25/10 97/160/10 96/156/10
f 5/28/10 99/31/10 98/7/10
f 5/28/10 11/30/10 100/158/10
f 2/25/10 12/162/10 101/159/10
f 1/161/10 102/163/10 100/158/10
f 6/8/10 103/17/10 101/159/10
f 1/161/10 13/157/10 96/156/10
f 6/8/10 16/21/10 98/7/10
f 108/164/5 125/172/5 122/165/5
f 117/166/7 122/165/7 128/167/7
f 111/168/9 128/167/9 123/169/9
f 107/171/8 124/179/8 125/172/8
f 2/25/6 113/27/6 105/9/6
f 5/28/8 16/21/8 106/20/8
f 1/161/9 118/174/9 112/26/9
f 1/161/7 11/30/7 116/29/7
f 108/164/10 113/27/10 112/26/10
f 109/175/10 115/173/10 106/20/10
f 109/175/10 104/177/10 116/29/10
f 108/164/10 117/166/10 105/9/10
f 110/176/10 118/174/10 116/29/10
f 111/168/10 119/10/10 105/9/10
f 110/176/10 107/171/10 112/26/10
f 111/168/10 114/170/10 106/20/10
f 120/178/10 122/165/10 125/172/10
f 128/167/10 122/165/10 120/178/10
f 126/180/10 123/169/10 120/178/10
f 120/178/10 124/179/10 127/182/10
f 114/170/1 123/169/1 126/180/1
f 110/176/3 127/182/3 124/179/3
f 104/177/4 121/181/4 127/182/4
f 109/175/6 126/180/6 121/181/6
