# Blender v3.0.1 OBJ File: 'glock.blend'
# www.blender.org
mtllib glock_top.mtl
o GlockTop_Cube.001
v 0.169504 0.643515 -1.122296
v 0.085153 0.200846 -1.122296
v 0.169504 0.643515 1.122296
v -0.169504 0.643515 -1.122296
v -0.085153 0.200846 -1.122296
v -0.169504 0.643515 1.122296
v 0.169504 0.643515 1.002465
v -0.169504 0.643515 1.002465
v -0.169504 0.643515 0.251464
v 0.169504 0.643515 0.251464
v 0.169504 0.356822 -1.122296
v -0.169504 0.356822 1.122296
v 0.169504 0.356822 1.122296
v -0.169504 0.356822 -1.122296
v 0.169504 0.356822 1.002465
v -0.169504 0.356822 1.002465
v 0.169504 0.356822 0.251464
v -0.169504 0.356822 0.251464
v -0.169504 0.643515 -0.454154
v 0.169504 0.643515 -0.454155
v 0.169504 0.356822 -0.454155
v -0.169504 0.356822 -0.454154
v 0.061337 0.179177 -1.122296
v -0.061337 0.179177 -1.122296
v 0.090774 0.679177 1.122296
v -0.090774 0.679177 1.122296
v -0.079772 0.604714 -1.122296
v 0.079772 0.604714 -1.122296
v -0.086407 0.728897 0.984997
v 0.086407 0.728897 0.984997
v -0.090774 0.679177 0.251464
v 0.090774 0.679177 0.251464
v -0.079772 0.431285 -1.122296
v 0.079772 0.431285 -1.122296
v 0.090774 0.356822 1.122296
v -0.090774 0.356822 1.122296
v -0.090774 0.679177 -0.454155
v 0.090774 0.679177 -0.454155
v 0.114535 0.237091 -1.122296
v -0.114535 0.237091 -1.122296
v -0.090774 0.237091 -1.122296
v 0.090774 0.237091 -1.122296
v 0.114535 0.337774 -1.122296
v -0.114535 0.337774 -1.122296
v -0.090774 0.337774 -1.122296
v 0.090774 0.337774 -1.122296
v -0.169504 0.643515 -0.473915
v 0.085153 0.200846 -0.473915
v -0.169504 0.356822 -0.473915
v -0.085153 0.200846 -0.473915
v 0.169504 0.643515 -0.473915
v 0.169504 0.356822 -0.473915
v 0.020521 0.679177 -0.903487
v -0.020521 0.679177 -0.903487
v -0.061337 0.179177 -0.473915
v 0.061337 0.179177 -0.473915
v 0.114535 0.237091 -0.473915
v -0.114535 0.237091 -0.473915
v 0.114535 0.337774 -0.473915
v -0.114535 0.337774 -0.473915
v -0.020521 0.679177 -1.027340
v 0.020521 0.679177 -1.027340
v -0.090774 0.356822 -1.122296
v 0.090774 0.356822 -1.122296
v -0.051482 0.576424 -1.191059
v 0.051482 0.576424 -1.191059
v -0.051482 0.459574 -1.191059
v 0.051482 0.459574 -1.191059
v -0.079772 0.604714 -1.191059
v 0.079772 0.604714 -1.191059
v -0.079772 0.431285 -1.191059
v 0.079772 0.431285 -1.191059
v -0.051482 0.576424 -0.753175
v 0.051482 0.576424 -0.753175
v -0.051482 0.459574 -0.753175
v 0.051482 0.459574 -0.753175
v 0.169504 0.643515 0.883205
v -0.169504 0.643515 0.883205
v -0.169504 0.356822 0.883205
v 0.169504 0.356822 0.883205
v 0.086407 0.728897 0.900674
v -0.086407 0.728897 0.900674
v -0.090774 0.679177 1.002465
v 0.090774 0.679177 1.002465
v 0.090774 0.679177 0.883205
v -0.090774 0.679177 0.883205
v -0.169504 0.643515 0.319928
v -0.169504 0.356822 0.319928
v 0.169504 0.643515 0.319928
v 0.169504 0.356822 0.319928
v 0.090774 0.679177 0.319928
v -0.090774 0.679177 0.319928
v -0.090774 0.679177 -1.122296
v 0.090774 0.679177 -1.122296
v 0.090774 0.679177 -0.473915
v -0.090774 0.679177 -0.473915
v -0.020521 0.736527 -1.027340
v 0.020521 0.736527 -1.027340
v 0.020521 0.736527 -0.903487
v -0.020521 0.736527 -0.903487
v 0.169504 0.643515 0.942835
v 0.169504 0.356822 0.942835
v 0.090774 0.679177 0.942835
v -0.090774 0.679177 0.942835
v -0.169504 0.643515 0.942835
v -0.169504 0.356822 0.942835
v 0.086407 0.728897 0.942835
v -0.086407 0.728897 0.942835
v 0.169504 0.643515 0.831434
v 0.169504 0.356822 0.831434
v 0.090774 0.679177 0.831434
v -0.090774 0.679177 0.831434
v -0.169504 0.643515 0.831434
v -0.169504 0.356822 0.831434
v -0.169504 0.643515 0.777429
v -0.169504 0.356822 0.777429
v 0.169504 0.643515 0.777429
v 0.169504 0.356822 0.777429
v 0.090774 0.679177 0.777429
v -0.090774 0.679177 0.777429
v -0.169504 0.643515 0.723480
v -0.169504 0.356822 0.723480
v 0.169504 0.643515 0.723480
v 0.169504 0.356822 0.723480
v 0.090774 0.679177 0.723480
v -0.090774 0.679177 0.723480
v 0.169504 0.643515 0.750454
v 0.169504 0.356822 0.750454
v 0.090774 0.679177 0.750454
v -0.090774 0.679177 0.750454
v -0.179734 0.643515 0.750454
v -0.179734 0.356822 0.750454
v 0.169504 0.643515 0.804431
v 0.169504 0.356822 0.804431
v 0.090774 0.679177 0.804431
v -0.090774 0.679177 0.804431
v -0.179734 0.643515 0.804431
v -0.179734 0.356822 0.804431
v 0.169504 0.643515 0.857320
v 0.169504 0.356822 0.857320
v 0.090774 0.679177 0.857320
v -0.090774 0.679177 0.857320
v -0.179734 0.643515 0.857320
v -0.179734 0.356822 0.857320
v -0.179734 0.643515 0.913020
v -0.179734 0.356822 0.913020
v 0.169504 0.643515 0.913020
v 0.169504 0.356822 0.913020
v 0.090774 0.679177 0.913020
v -0.090774 0.679177 0.913020
v 0.086407 0.728897 0.921754
v -0.086407 0.728897 0.921754
v 0.169504 0.643515 0.972650
v 0.169504 0.356822 0.972650
v 0.090774 0.679177 0.972650
v -0.090774 0.679177 0.972650
v 0.086407 0.728897 0.963916
v -0.086407 0.728897 0.963916
v -0.179734 0.643515 0.972650
v -0.179734 0.356822 0.972650
vt 0.875000 0.727971
vt 0.816941 0.750000
vt 0.816941 0.727971
vt 0.463823 0.941941
vt 0.625000 1.000000
vt 0.463823 1.000000
vt 0.625000 0.177784
vt 0.463823 0.250000
vt 0.463823 0.177784
vt 0.625000 0.727971
vt 0.463823 0.750000
vt 0.463823 0.727971
vt 0.463823 0.441941
vt 0.625000 0.500000
vt 0.463823 0.500000
vt 0.625000 0.724995
vt 0.463823 0.724995
vt 0.625000 0.000000
vt 0.463823 0.022029
vt 0.463823 0.000000
vt 0.816941 0.724995
vt 0.875000 0.574417
vt 0.816941 0.653008
vt 0.816941 0.574417
vt 0.625000 0.574417
vt 0.463823 0.653008
vt 0.463823 0.574417
vt 0.625000 0.090158
vt 0.463823 0.096992
vt 0.463823 0.090158
vt 0.454299 0.500000
vt 0.454299 0.441941
vt 0.454299 0.250000
vt 0.454299 0.177784
vt 0.625000 0.572216
vt 0.463823 0.572216
vt 0.875000 0.572216
vt 0.816941 0.572216
vt 0.625000 0.096992
vt 0.463823 0.175583
vt 0.683059 0.572216
vt 0.683059 0.574417
vt 0.463823 0.308059
vt 0.454299 0.308059
vt 0.625000 0.653008
vt 0.683059 0.653008
vt 0.683059 0.724995
vt 0.813720 0.724123
vt 0.686280 0.726228
vt 0.686280 0.724123
vt 0.625000 0.250000
vt 0.601601 0.342571
vt 0.487222 0.342571
vt 0.487222 0.342571
vt 0.625000 0.750000
vt 0.463823 0.808059
vt 0.625000 0.808059
vt 0.683059 0.727971
vt 0.683059 0.750000
vt 0.403957 0.308059
vt 0.375000 0.441941
vt 0.375000 0.308059
vt 0.375000 0.250000
vt 0.403957 0.177784
vt 0.375000 0.177784
vt 0.403957 0.441941
vt 0.375000 0.500000
vt 0.403957 0.250000
vt 0.403957 0.500000
vt 0.403957 0.572216
vt 0.375000 0.572216
vt 0.316941 0.500000
vt 0.183059 0.572216
vt 0.183059 0.500000
vt 0.125000 0.572216
vt 0.125000 0.500000
vt 0.765133 0.540917
vt 0.765133 0.531299
vt 0.765133 0.531299
vt 0.683059 0.500000
vt 0.875000 0.500000
vt 0.816941 0.500000
vt 0.316941 0.572216
vt 0.454299 0.572216
vt 0.625000 0.175583
vt 0.625000 0.441941
vt 0.601601 0.407429
vt 0.487222 0.407429
vt 0.625000 0.308059
vt 0.582943 0.395929
vt 0.582943 0.354071
vt 0.582943 0.354071
vt 0.601601 0.342571
vt 0.601601 0.407429
vt 0.487222 0.407429
vt 0.505880 0.395929
vt 0.505880 0.354071
vt 0.505880 0.395929
vt 0.505880 0.354071
vt 0.582943 0.395929
vt 0.816941 0.713483
vt 0.683059 0.716067
vt 0.683059 0.713483
vt 0.625000 0.716067
vt 0.625000 0.713483
vt 0.625000 0.030957
vt 0.463823 0.033933
vt 0.463823 0.030957
vt 0.875000 0.716067
vt 0.816941 0.716067
vt 0.463823 0.716067
vt 0.463823 0.713483
vt 0.813720 0.726228
vt 0.813720 0.717811
vt 0.816941 0.719043
vt 0.813720 0.719915
vt 0.686280 0.717811
vt 0.625000 0.659842
vt 0.463823 0.659842
vt 0.875000 0.653008
vt 0.816941 0.659842
vt 0.683059 0.659842
vt 0.625000 0.049876
vt 0.463823 0.049877
vt 0.734867 0.531299
vt 0.734867 0.540917
vt 0.734867 0.540917
vt 0.734867 0.531299
vt 0.765133 0.540917
vt 0.816941 0.722019
vt 0.686280 0.719915
vt 0.683059 0.722019
vt 0.683059 0.719043
vt 0.625000 0.025005
vt 0.463823 0.027981
vt 0.463823 0.025005
vt 0.686280 0.722019
vt 0.625000 0.722019
vt 0.625000 0.719043
vt 0.875000 0.722019
vt 0.463823 0.722019
vt 0.463823 0.719043
vt 0.625000 0.036517
vt 0.463823 0.039101
vt 0.463823 0.036517
vt 0.625000 0.708204
vt 0.463823 0.710899
vt 0.463823 0.708204
vt 0.816941 0.708204
vt 0.875000 0.710899
vt 0.816941 0.710899
vt 0.683059 0.708204
vt 0.625000 0.710899
vt 0.683059 0.710899
vt 0.816941 0.702816
vt 0.683059 0.705509
vt 0.683059 0.702816
vt 0.625000 0.705509
vt 0.625000 0.702816
vt 0.875000 0.705509
vt 0.816941 0.705509
vt 0.463823 0.705509
vt 0.463823 0.702816
vt 0.625000 0.041796
vt 0.463823 0.044491
vt 0.463823 0.041796
vt 0.463823 0.700124
vt 0.875000 0.659842
vt 0.816941 0.700124
vt 0.625000 0.700124
vt 0.683059 0.700124
vt 0.625000 0.047184
vt 0.463823 0.047184
vt 0.625000 0.044491
vt 0.875000 0.700124
vt 0.625000 0.039101
vt 0.625000 0.033933
vt 0.813720 0.722019
vt 0.625000 0.027981
vt 0.625000 0.022029
vt 0.875000 0.750000
vt 0.625000 0.941941
vt 0.875000 0.724995
vt 0.875000 0.713483
vt 0.875000 0.719043
vt 0.875000 0.708204
vt 0.875000 0.702816
vn -0.4126 0.9109 0.0000
vn 0.0000 0.0000 1.0000
vn -1.0000 0.0000 0.0000
vn 1.0000 0.0000 0.0000
vn 0.0000 0.0000 -1.0000
vn -0.3274 -0.9449 0.0000
vn 0.4126 0.9109 0.0000
vn 0.0000 1.0000 0.0000
vn -0.7768 -0.6297 0.0000
vn 0.7768 -0.6297 0.0000
vn 0.0000 -1.0000 0.0000
vn -0.6730 -0.7397 0.0000
vn 0.6730 -0.7397 0.0000
vn 0.3274 -0.9449 0.0000
vn -0.9459 0.0000 -0.3246
vn 0.0000 0.3315 0.9435
vn 0.9962 0.0875 0.0000
vn -0.9962 0.0875 0.0000
vn 0.0000 0.3315 -0.9435
vn -0.9300 0.0000 -0.3675
vn -0.9351 0.0000 -0.3543
vn -0.9350 0.0000 -0.3546
vn -0.9350 0.0000 0.3546
vn -0.9351 0.0000 0.3543
vn -0.9300 0.0000 0.3675
vn -0.9459 0.0000 0.3246
vn -0.3691 0.9207 0.1266
vn -0.3681 0.9183 0.1455
vn -0.9300 0.0000 -0.3676
vn -0.3684 0.9191 0.1396
vn -0.3684 0.9191 0.1397
vn -0.3684 0.9191 -0.1397
vn -0.3684 0.9191 -0.1396
vn -0.3681 0.9183 -0.1455
vn -0.3691 0.9207 -0.1266
usemtl Material
s off
f 8/1/1 26/2/1 83/3/1
f 36/4/2 6/5/2 12/6/2
f 47/7/3 14/8/3 49/9/3
f 7/10/4 13/11/4 15/12/4
f 64/13/5 1/14/5 11/15/5
f 153/16/4 15/12/4 154/17/4
f 6/18/3 16/19/3 12/20/3
f 156/21/1 8/1/1 83/3/1
f 19/22/1 31/23/1 37/24/1
f 20/25/4 17/26/4 21/27/4
f 87/28/3 18/29/3 88/30/3
f 64/13/5 43/31/5 46/32/5
f 49/9/6 44/33/6 60/34/6
f 51/35/4 21/27/4 52/36/4
f 47/37/1 37/24/1 96/38/1
f 9/39/3 22/40/3 18/29/3
f 95/41/7 20/25/7 51/35/7
f 96/38/8 38/42/8 95/41/8
f 44/33/5 63/43/5 45/44/5
f 63/43/5 46/32/5 45/44/5
f 38/42/7 10/45/7 20/25/7
f 37/24/8 32/46/8 38/42/8
f 155/47/7 7/10/7 153/16/7
f 158/48/8 30/49/8 157/50/8
f 4/51/5 63/43/5 14/8/5
f 27/52/3 71/53/3 33/54/3
f 3/55/2 35/56/2 13/11/2
f 25/57/2 36/4/2 35/56/2
f 84/58/7 3/55/7 7/10/7
f 83/3/8 25/59/8 84/58/8
f 41/60/5 23/61/5 24/62/5
f 5/63/5 41/60/5 24/62/5
f 58/64/9 5/63/9 50/65/9
f 42/66/5 2/67/5 23/61/5
f 45/44/5 42/66/5 41/60/5
f 40/68/5 45/44/5 41/60/5
f 60/34/3 40/68/3 58/64/3
f 46/32/5 39/69/5 42/66/5
f 43/31/4 57/70/4 39/69/4
f 2/67/10 57/70/10 48/71/10
f 23/72/11 55/73/11 24/74/11
f 24/74/12 50/75/12 5/76/12
f 54/77/3 97/78/3 61/79/3
f 94/80/7 51/35/7 1/14/7
f 4/81/1 96/38/1 93/82/1
f 2/67/13 56/83/13 23/72/13
f 1/14/4 52/36/4 11/15/4
f 11/15/14 59/84/14 43/31/14
f 19/85/3 49/9/3 22/40/3
f 27/52/5 94/86/5 28/87/5
f 34/88/5 63/43/5 33/54/5
f 33/54/5 93/89/5 27/52/5
f 28/87/5 64/13/5 34/88/5
f 66/90/11 73/91/11 65/92/11
f 28/87/8 69/93/8 27/52/8
f 34/88/4 70/94/4 28/87/4
f 33/54/11 72/95/11 34/88/11
f 65/92/5 70/94/5 66/90/5
f 68/96/5 71/53/5 67/97/5
f 67/97/5 69/93/5 65/92/5
f 66/90/5 72/95/5 68/96/5
f 73/91/5 76/98/5 75/99/5
f 68/96/3 74/100/3 66/90/3
f 67/97/8 76/98/8 68/96/8
f 65/92/4 75/99/4 67/97/4
f 142/101/8 85/102/8 141/103/8
f 141/103/7 77/104/7 139/105/7
f 145/106/15 79/107/15 146/108/15
f 142/101/1 78/109/1 86/110/1
f 139/105/4 80/111/4 140/112/4
f 29/113/16 84/58/16 30/49/16
f 30/49/17 155/47/17 157/50/17
f 82/114/18 150/115/18 152/116/18
f 81/117/19 86/110/19 82/114/19
f 17/26/4 89/118/4 90/119/4
f 9/120/1 92/121/1 31/23/1
f 32/46/7 89/118/7 10/45/7
f 31/23/8 91/122/8 32/46/8
f 121/123/3 88/30/3 122/124/3
f 62/125/8 93/82/8 61/79/8
f 53/126/8 94/80/8 62/125/8
f 54/77/8 93/82/8 96/38/8
f 54/77/8 95/41/8 53/126/8
f 97/78/8 99/127/8 98/128/8
f 61/79/5 98/128/5 62/125/5
f 53/126/2 100/129/2 54/77/2
f 62/125/4 99/127/4 53/126/4
f 158/48/18 104/130/18 156/21/18
f 151/131/17 103/132/17 149/133/17
f 159/134/15 106/135/15 160/136/15
f 152/116/8 107/137/8 151/131/8
f 149/133/7 101/138/7 147/139/7
f 150/115/1 105/140/1 104/130/1
f 147/139/4 102/141/4 148/142/4
f 143/143/20 114/144/20 144/145/20
f 133/146/4 110/147/4 134/148/4
f 136/149/1 113/150/1 112/151/1
f 135/152/7 109/153/7 133/146/7
f 136/149/8 111/154/8 135/152/8
f 130/155/8 119/156/8 129/157/8
f 129/157/7 117/158/7 127/159/7
f 130/155/1 115/160/1 120/161/1
f 127/159/4 118/162/4 128/163/4
f 137/164/21 116/165/21 138/166/21
f 89/118/4 124/167/4 90/119/4
f 87/168/1 126/169/1 92/121/1
f 91/122/7 123/170/7 89/118/7
f 92/121/8 125/171/8 91/122/8
f 131/172/22 122/124/22 132/173/22
f 115/174/23 132/173/23 116/165/23
f 123/170/4 128/163/4 124/167/4
f 121/175/1 130/155/1 126/169/1
f 125/171/7 127/159/7 123/170/7
f 126/169/8 129/157/8 125/171/8
f 113/176/24 138/166/24 114/144/24
f 120/161/8 135/152/8 119/156/8
f 119/156/7 133/146/7 117/158/7
f 115/160/1 136/149/1 120/161/1
f 117/158/4 134/148/4 118/162/4
f 78/177/25 144/145/25 79/107/25
f 109/153/4 140/112/4 110/147/4
f 113/150/1 142/101/1 112/151/1
f 111/154/7 139/105/7 109/153/7
f 112/151/8 141/103/8 111/154/8
f 77/104/4 148/142/4 80/111/4
f 78/109/1 150/115/1 86/110/1
f 85/102/7 147/139/7 77/104/7
f 82/114/8 151/131/8 81/117/8
f 81/117/17 149/133/17 85/102/17
f 152/116/18 104/130/18 108/178/18
f 105/179/26 146/108/26 106/135/26
f 8/180/26 160/136/26 16/19/26
f 29/113/18 156/21/18 83/3/18
f 157/50/17 103/132/17 107/137/17
f 108/178/8 157/50/8 107/137/8
f 103/132/7 153/16/7 101/138/7
f 105/140/1 156/21/1 104/130/1
f 101/138/4 154/17/4 102/141/4
f 8/1/1 6/181/1 26/2/1
f 36/4/2 26/182/2 6/5/2
f 47/7/3 4/51/3 14/8/3
f 7/10/4 3/55/4 13/11/4
f 64/13/5 94/86/5 1/14/5
f 153/16/4 7/10/4 15/12/4
f 6/18/3 8/180/3 16/19/3
f 156/21/27 159/183/27 8/1/27
f 19/22/1 9/120/1 31/23/1
f 20/25/4 10/45/4 17/26/4
f 87/28/3 9/39/3 18/29/3
f 64/13/5 11/15/5 43/31/5
f 49/9/6 14/8/6 44/33/6
f 51/35/4 20/25/4 21/27/4
f 47/37/1 19/22/1 37/24/1
f 9/39/3 19/85/3 22/40/3
f 95/41/7 38/42/7 20/25/7
f 96/38/8 37/24/8 38/42/8
f 44/33/5 14/8/5 63/43/5
f 63/43/5 64/13/5 46/32/5
f 38/42/7 32/46/7 10/45/7
f 37/24/8 31/23/8 32/46/8
f 155/47/7 84/58/7 7/10/7
f 158/48/8 29/113/8 30/49/8
f 4/51/5 93/89/5 63/43/5
f 27/52/3 69/93/3 71/53/3
f 3/55/2 25/57/2 35/56/2
f 25/57/2 26/182/2 36/4/2
f 84/58/7 25/59/7 3/55/7
f 83/3/8 26/2/8 25/59/8
f 41/60/5 42/66/5 23/61/5
f 5/63/5 40/68/5 41/60/5
f 58/64/9 40/68/9 5/63/9
f 42/66/5 39/69/5 2/67/5
f 45/44/5 46/32/5 42/66/5
f 40/68/5 44/33/5 45/44/5
f 60/34/3 44/33/3 40/68/3
f 46/32/5 43/31/5 39/69/5
f 43/31/4 59/84/4 57/70/4
f 2/67/10 39/69/10 57/70/10
f 23/72/11 56/83/11 55/73/11
f 24/74/12 55/73/12 50/75/12
f 54/77/3 100/129/3 97/78/3
f 94/80/7 95/41/7 51/35/7
f 4/81/1 47/37/1 96/38/1
f 2/67/13 48/71/13 56/83/13
f 1/14/4 51/35/4 52/36/4
f 11/15/14 52/36/14 59/84/14
f 19/85/3 47/7/3 49/9/3
f 27/52/5 93/89/5 94/86/5
f 34/88/5 64/13/5 63/43/5
f 33/54/5 63/43/5 93/89/5
f 28/87/5 94/86/5 64/13/5
f 66/90/11 74/100/11 73/91/11
f 28/87/8 70/94/8 69/93/8
f 34/88/4 72/95/4 70/94/4
f 33/54/11 71/53/11 72/95/11
f 65/92/5 69/93/5 70/94/5
f 68/96/5 72/95/5 71/53/5
f 67/97/5 71/53/5 69/93/5
f 66/90/5 70/94/5 72/95/5
f 73/91/5 74/100/5 76/98/5
f 68/96/3 76/98/3 74/100/3
f 67/97/8 75/99/8 76/98/8
f 65/92/4 73/91/4 75/99/4
f 142/101/8 86/110/8 85/102/8
f 141/103/7 85/102/7 77/104/7
f 145/106/15 78/177/15 79/107/15
f 142/101/28 143/184/28 78/109/28
f 139/105/4 77/104/4 80/111/4
f 29/113/16 83/3/16 84/58/16
f 30/49/17 84/58/17 155/47/17
f 82/114/18 86/110/18 150/115/18
f 81/117/19 85/102/19 86/110/19
f 17/26/4 10/45/4 89/118/4
f 9/120/1 87/168/1 92/121/1
f 32/46/7 91/122/7 89/118/7
f 31/23/8 92/121/8 91/122/8
f 121/123/3 87/28/3 88/30/3
f 62/125/8 94/80/8 93/82/8
f 53/126/8 95/41/8 94/80/8
f 54/77/8 61/79/8 93/82/8
f 54/77/8 96/38/8 95/41/8
f 97/78/8 100/129/8 99/127/8
f 61/79/5 97/78/5 98/128/5
f 53/126/2 99/127/2 100/129/2
f 62/125/4 98/128/4 99/127/4
f 158/48/18 108/178/18 104/130/18
f 151/131/17 107/137/17 103/132/17
f 159/134/15 105/179/15 106/135/15
f 152/116/8 108/178/8 107/137/8
f 149/133/7 103/132/7 101/138/7
f 150/115/27 145/185/27 105/140/27
f 147/139/4 101/138/4 102/141/4
f 143/143/29 113/176/29 114/144/29
f 133/146/4 109/153/4 110/147/4
f 136/149/30 137/186/30 113/150/30
f 135/152/7 111/154/7 109/153/7
f 136/149/8 112/151/8 111/154/8
f 130/155/8 120/161/8 119/156/8
f 129/157/7 119/156/7 117/158/7
f 130/155/31 131/187/31 115/160/31
f 127/159/4 117/158/4 118/162/4
f 137/164/21 115/174/21 116/165/21
f 89/118/4 123/170/4 124/167/4
f 87/168/1 121/175/1 126/169/1
f 91/122/7 125/171/7 123/170/7
f 92/121/8 126/169/8 125/171/8
f 131/172/22 121/123/22 122/124/22
f 115/174/23 131/172/23 132/173/23
f 123/170/4 127/159/4 128/163/4
f 121/175/32 131/187/32 130/155/32
f 125/171/7 129/157/7 127/159/7
f 126/169/8 130/155/8 129/157/8
f 113/176/24 137/164/24 138/166/24
f 120/161/8 136/149/8 135/152/8
f 119/156/7 135/152/7 133/146/7
f 115/160/33 137/186/33 136/149/33
f 117/158/4 133/146/4 134/148/4
f 78/177/25 143/143/25 144/145/25
f 109/153/4 139/105/4 140/112/4
f 113/150/34 143/184/34 142/101/34
f 111/154/7 141/103/7 139/105/7
f 112/151/8 142/101/8 141/103/8
f 77/104/4 147/139/4 148/142/4
f 78/109/35 145/185/35 150/115/35
f 85/102/7 149/133/7 147/139/7
f 82/114/8 152/116/8 151/131/8
f 81/117/17 151/131/17 149/133/17
f 152/116/18 150/115/18 104/130/18
f 105/179/26 145/106/26 146/108/26
f 8/180/26 159/134/26 160/136/26
f 29/113/18 158/48/18 156/21/18
f 157/50/17 155/47/17 103/132/17
f 108/178/8 158/48/8 157/50/8
f 103/132/7 155/47/7 153/16/7
f 105/140/35 159/183/35 156/21/35
f 101/138/4 153/16/4 154/17/4
