# Blender v3.0.1 OBJ File: 'rock.blend'
# www.blender.org
mtllib rock.mtl
o Cube
v 1.000000 1.658679 -1.000000
v 1.000000 -0.341321 -1.000000
v 0.869297 1.356028 1.023892
v 0.646860 -0.038819 0.964045
v -1.086703 1.196522 -1.032761
v -0.619425 -0.227645 -0.877794
v -0.885595 1.407835 1.101197
v -0.750846 -0.003192 0.995698
v -1.000000 -0.341321 0.000000
v 1.310261 1.390203 -0.018966
v -1.152333 1.183331 -0.099359
v 1.325516 -0.300915 0.037934
v 0.000000 -0.341321 -1.000000
v 0.000000 1.658679 1.000000
v 0.000000 -0.341321 1.000000
v 0.000000 1.658679 -1.000000
v 0.000000 -0.341321 0.000000
v -0.058018 1.946831 -0.113966
v 1.485905 0.428220 -0.768581
v -1.000000 0.658679 1.000000
v 0.983898 0.552736 1.062322
v -1.114897 0.428249 -1.206944
v 1.427062 0.290814 0.370090
v -1.755920 0.459207 -0.430374
v 0.342764 0.678892 -1.896834
v 0.065975 0.508329 1.437079
vt 0.227609 0.166907
vt 0.000000 0.321452
vt 0.032654 0.165071
vt 0.529793 0.684286
vt 0.764220 0.718505
vt 0.678227 0.822261
vt 0.253376 0.558132
vt 0.371047 0.402356
vt 0.400220 0.473224
vt 0.497414 0.210314
vt 0.400220 0.203480
vt 0.401153 0.107473
vt 0.065460 0.756188
vt 0.204668 0.558132
vt 0.261784 0.692649
vt 0.991241 0.776131
vt 0.794247 0.604445
vt 0.991241 0.501316
vt 0.232032 0.891824
vt 0.525573 0.456378
vt 0.593674 0.313155
vt 0.014964 0.402971
vt 0.206091 0.399520
vt 0.383755 0.195261
vt 0.400220 0.040503
vt 0.232779 0.000000
vt 0.638997 0.211744
vt 0.565514 0.067090
vt 0.808013 0.924326
vt 0.942127 0.938401
vt 0.497029 0.000000
vt 0.561787 0.501316
vt 0.440073 0.576062
vt 0.042402 0.055342
vt 0.400220 0.690528
vt 0.431414 0.806742
vt 0.790409 0.173901
vt 0.563224 0.975965
vt 0.561277 0.865356
vt 0.357048 0.746835
vt 0.343646 0.915887
vt 0.790409 0.453343
vt 0.292475 0.564042
vt 0.763369 0.002194
vt 0.700555 0.580009
vt 0.408790 0.396213
vt 0.061903 0.561010
vt 0.764220 0.757917
vt 0.000000 0.915887
vt 0.764220 1.000000
vt 0.571091 0.501316
vn -0.2365 0.9376 0.2549
vn -0.3864 -0.0653 0.9200
vn -0.7565 0.1709 -0.6313
vn 0.4236 -0.9058 0.0000
vn 0.8556 0.2511 0.4527
vn 0.7110 0.1516 -0.6867
vn 0.9894 0.1287 0.0667
vn 0.0000 -1.0000 0.0000
vn -0.7921 0.5008 0.3488
vn -0.5501 0.7829 -0.2906
vn 0.3651 0.9209 0.1365
vn 0.0000 -0.9917 -0.1284
vn -0.4477 0.2133 -0.8684
vn 0.0000 -0.9469 0.3216
vn 0.3722 0.0973 0.9231
vn 0.3597 0.9152 0.1821
vn 0.2612 -0.4575 0.8500
vn -0.2589 -0.5823 -0.7706
vn -0.8814 -0.3340 0.3340
vn 0.8510 -0.4625 -0.2489
vn 0.0000 -0.6602 -0.7511
vn 0.6533 -0.4527 0.6068
vn -0.5814 -0.7357 -0.3474
vn -0.2012 -0.4357 0.8773
vn -0.5722 0.8197 -0.0261
vn 0.0061 0.3555 0.9347
vn -0.7574 0.6515 -0.0440
vn 0.0210 -0.9579 0.2865
vn 0.9091 0.1483 0.3893
vn 0.0000 0.6752 -0.7376
vn 0.9232 0.3265 -0.2026
vn 0.0296 -0.9991 0.0296
vn -0.9734 0.1225 0.1934
vn -0.3910 0.9203 -0.0145
vn 0.0000 0.9510 -0.3093
vn -0.1805 -0.9836 0.0000
vn -0.2365 0.6097 -0.7565
vn -0.4106 -0.9118 0.0000
vn 0.0993 0.3584 0.9283
vn 0.3151 0.9227 0.2223
vn 0.3683 -0.3527 0.8602
vn -0.2621 -0.5860 -0.7668
vn -0.7550 -0.4637 0.4637
vn 0.9824 -0.1846 0.0285
vn 0.6648 -0.2036 -0.7188
vn 0.6517 -0.4702 0.5951
vn -0.5849 -0.6707 -0.4561
vn -0.3934 -0.1540 0.9064
usemtl Material
s off
f 18/1/1 7/2/1 14/3/1
f 26/4/2 7/5/2 20/6/2
f 24/7/3 5/8/3 22/9/3
f 17/10/4 4/11/4 15/12/4
f 10/13/5 21/14/5 23/15/5
f 25/16/6 1/17/6 19/18/6
f 19/19/7 10/13/7 23/15/7
f 2/20/8 17/10/8 13/21/8
f 20/22/9 11/23/9 24/7/9
f 16/24/10 11/23/10 18/1/10
f 1/25/11 18/1/11 10/26/11
f 6/27/12 17/10/12 9/28/12
f 5/29/13 25/16/13 22/30/13
f 17/10/14 8/31/14 9/28/14
f 3/32/15 26/4/15 21/33/15
f 18/1/16 3/34/16 10/26/16
f 4/35/17 26/4/17 15/36/17
f 22/37/18 13/21/18 6/27/18
f 20/6/19 9/38/19 8/39/19
f 19/19/20 12/40/20 2/41/20
f 25/42/21 2/20/21 13/21/21
f 23/15/22 4/43/22 12/40/22
f 24/44/23 6/27/23 9/28/23
f 26/4/24 8/39/24 15/36/24
f 18/1/25 11/23/25 7/2/25
f 26/4/26 14/45/26 7/5/26
f 24/7/27 11/23/27 5/8/27
f 17/10/28 12/46/28 4/11/28
f 10/13/29 3/47/29 21/14/29
f 25/16/30 16/48/30 1/17/30
f 19/19/31 1/49/31 10/13/31
f 2/20/32 12/46/32 17/10/32
f 20/22/33 7/2/33 11/23/33
f 16/24/34 5/8/34 11/23/34
f 1/25/35 16/24/35 18/1/35
f 6/27/36 13/21/36 17/10/36
f 5/29/37 16/48/37 25/16/37
f 17/10/38 15/12/38 8/31/38
f 3/32/39 14/45/39 26/4/39
f 18/1/40 14/3/40 3/34/40
f 4/35/41 21/33/41 26/4/41
f 22/37/42 25/42/42 13/21/42
f 20/6/43 24/50/43 9/38/43
f 19/19/44 23/15/44 12/40/44
f 25/42/45 19/51/45 2/20/45
f 23/15/46 21/14/46 4/43/46
f 24/44/47 22/37/47 6/27/47
f 26/4/48 20/6/48 8/39/48
